<svg width="256px" height="256px" viewBox="0 0 256 256" version="1.1" xmlns="http://www.w3.org/2000/svg" xmlns:xlink="http://www.w3.org/1999/xlink">
    <g id="Symbols" stroke="none" stroke-width="1" fill="none" fill-rule="evenodd">
        <g id="Papierlos-Icon">
            <g id="Icon">
                <polygon id="rectangle" fill="#15202A" points="0 0 256 0 256 256 0 256"></polygon>
                <path d="M101.604651,152.58427 C106.307517,152.58427 110.23771,151.640459 113.395349,149.752809 C116.552987,147.865159 119.105933,145.40451 121.054264,142.370787 C123.002594,139.337063 124.379841,135.797773 125.186047,131.752809 C125.992252,127.707845 126.395349,123.595527 126.395349,119.41573 C126.395349,115.235934 125.958661,111.123616 125.085271,107.078652 C124.211882,103.033688 122.767452,99.4269821 120.751938,96.258427 C118.736424,93.0898718 116.149887,90.5280997 112.992248,88.5730337 C109.83461,86.6179678 105.971599,85.6404494 101.403101,85.6404494 C96.7002349,85.6404494 92.7700416,86.6179678 89.6124031,88.5730337 C86.4547646,90.5280997 83.9018185,93.0561643 81.9534884,96.1573034 C80.0051582,99.2584425 78.627911,102.83144 77.8217054,106.876404 C77.0154998,110.921369 76.6124031,115.101102 76.6124031,119.41573 C76.6124031,123.595527 77.0490912,127.707845 77.9224806,131.752809 C78.79587,135.797773 80.2067086,139.337063 82.1550388,142.370787 C84.1033689,145.40451 86.6899064,147.865159 89.9147287,149.752809 C93.139551,151.640459 97.0361529,152.58427 101.604651,152.58427 Z M49,66.8314607 L76.2093023,66.8314607 L76.2093023,80.1797753 L76.6124031,80.1797753 C80.1059606,74.5168256 84.5400248,70.4045072 89.9147287,67.8426966 C95.2894326,65.2808861 101.201518,64 107.651163,64 C115.847586,64 122.901779,65.5505463 128.813953,68.6516854 C134.726128,71.7528245 139.630471,75.8651429 143.527132,80.988764 C147.423792,86.1123852 150.312652,92.0786176 152.193798,98.8876404 C154.074945,105.696663 155.015504,112.808952 155.015504,120.224719 C155.015504,127.23599 154.074945,133.977496 152.193798,140.449438 C150.312652,146.921381 147.457383,152.65166 143.627907,157.640449 C139.79843,162.629238 135.028452,166.606727 129.317829,169.573034 C123.607207,172.539341 116.922519,174.022472 109.263566,174.022472 C102.813921,174.022472 96.8682443,172.707878 91.4263566,170.078652 C85.9844689,167.449425 81.5168133,163.573059 78.0232558,158.449438 L77.620155,158.449438 L77.620155,208 L49,208 L49,66.8314607 Z M173.356589,140.247191 L205,140.247191 L205,171.393258 L173.356589,171.393258 L173.356589,140.247191 Z" id="title" fill="#F1BD1F"></path>
            </g>
        </g>
    </g>
</svg>