<svg width="658px" height="231px" viewBox="0 0 658 231" version="1.1" xmlns="http://www.w3.org/2000/svg" xmlns:xlink="http://www.w3.org/1999/xlink">
    <g id="Page-1" stroke="none" stroke-width="1" fill="none" fill-rule="evenodd">
        <g id="Custom-Preset">
            <g id="papierlos">
                <text id="subtitle" font-family="HelveticaNeue-Light, Helvetica Neue" font-size="44" font-weight="300" fill="#38444D">
                    <tspan x="1.376" y="230">Raus mit den tätowierten Bäumen!</tspan>
                </text>
                <path d="M0,0 L658,0 L658,187 L0,187 L0,0 Z M69.456,116.096 C66.5546522,116.096 64.0800102,115.498673 62.032,114.304 C59.9839898,113.109327 58.3413395,111.55201 57.104,109.632 C55.8666605,107.71199 54.9706694,105.472013 54.416,102.912 C53.8613306,100.351987 53.584,97.7493466 53.584,95.104 C53.584,92.3733197 53.8399974,89.7280128 54.352,87.168 C54.8640026,84.6079872 55.7386605,82.3466765 56.976,80.384 C58.2133395,78.4213235 59.8346566,76.8213395 61.84,75.584 C63.8453434,74.3466605 66.3413184,73.728 69.328,73.728 C72.2293478,73.728 74.6826566,74.3466605 76.688,75.584 C78.6933434,76.8213395 80.3359936,78.4426566 81.616,80.448 C82.8960064,82.4533434 83.8133306,84.7359872 84.368,87.296 C84.9226694,89.8560128 85.2,92.4586534 85.2,95.104 C85.2,97.7493466 84.9440026,100.351987 84.432,102.912 C83.9199974,105.472013 83.0453395,107.71199 81.808,109.632 C80.5706605,111.55201 78.9493434,113.109327 76.944,114.304 C74.9386566,115.498673 72.4426816,116.096 69.456,116.096 Z M36.048,61.824 L36.048,151.168 L54.224,151.168 L54.224,119.808 L54.48,119.808 C56.6986778,123.050683 59.5359827,125.503992 62.992,127.168 C66.4480173,128.832008 70.2239795,129.664 74.32,129.664 C79.1840243,129.664 83.4293152,128.725343 87.056,126.848 C90.6826848,124.970657 93.7119878,122.453349 96.144,119.296 C98.5760122,116.138651 100.389327,112.51202 101.584,108.416 C102.778673,104.31998 103.376,100.053356 103.376,95.616 C103.376,90.9226432 102.778673,86.4213549 101.584,82.112 C100.389327,77.8026451 98.554679,74.0266829 96.08,70.784 C93.605321,67.5413171 90.4906854,64.9386765 86.736,62.976 C82.9813146,61.0133235 78.5013594,60.032 73.296,60.032 C69.1999795,60.032 65.4453504,60.8426586 62.032,62.464 C58.6186496,64.0853414 55.8026778,66.6879821 53.584,70.272 L53.328,70.272 L53.328,61.824 L36.048,61.824 Z M113.488,82.176 L131.664,82.176 C132.005335,78.5919821 133.19999,76.0320077 135.248,74.496 C137.29601,72.9599923 140.111982,72.192 143.696,72.192 C145.317341,72.192 146.831993,72.2986656 148.24,72.512 C149.648007,72.7253344 150.885328,73.1519968 151.952,73.792 C153.018672,74.4320032 153.871997,75.3279942 154.512,76.48 C155.152003,77.6320058 155.472,79.1893235 155.472,81.152 C155.557334,83.0293427 155.002673,84.4586618 153.808,85.44 C152.613327,86.4213382 150.99201,87.1679974 148.944,87.68 C146.89599,88.1920026 144.549347,88.5759987 141.904,88.832 C139.258653,89.0880013 136.57068,89.4293312 133.84,89.856 C131.10932,90.2826688 128.400013,90.858663 125.712,91.584 C123.023987,92.309337 120.634677,93.3973261 118.544,94.848 C116.453323,96.2986739 114.746673,98.2399878 113.424,100.672 C112.101327,103.104012 111.44,106.197315 111.44,109.952 C111.44,113.36535 112.015994,116.309321 113.168,118.784 C114.320006,121.258679 115.91999,123.306659 117.968,124.928 C120.01601,126.549341 122.40532,127.743996 125.136,128.512 C127.86668,129.280004 130.810651,129.664 133.968,129.664 C138.06402,129.664 142.074647,129.066673 146,127.872 C149.925353,126.677327 153.338652,124.586682 156.24,121.6 C156.325334,122.709339 156.474666,123.797328 156.688,124.864 C156.901334,125.930672 157.178665,126.975995 157.52,128 L175.952,128 C175.098662,126.63466 174.501335,124.58668 174.16,121.856 C173.818665,119.12532 173.648,116.266682 173.648,113.28 L173.648,78.848 C173.648,74.8373133 172.752009,71.6160122 170.96,69.184 C169.167991,66.7519878 166.864014,64.8533402 164.048,63.488 C161.231986,62.1226598 158.11735,61.2053357 154.704,60.736 C151.29065,60.2666643 147.920017,60.032 144.592,60.032 C140.922648,60.032 137.274685,60.394663 133.648,61.12 C130.021315,61.845337 126.757348,63.0613248 123.856,64.768 C120.954652,66.4746752 118.565343,68.7359859 116.688,71.552 C114.810657,74.3680141 113.744001,77.909312 113.488,82.176 Z M155.472,95.616 L155.472,102.4 C155.472,103.424005 155.365334,104.789325 155.152,106.496 C154.938666,108.202675 154.362671,109.887992 153.424,111.552 C152.485329,113.216008 151.034676,114.645327 149.072,115.84 C147.109324,117.034673 144.336018,117.632 140.752,117.632 C139.301326,117.632 137.89334,117.504001 136.528,117.248 C135.16266,116.991999 133.968005,116.544003 132.944,115.904 C131.919995,115.263997 131.109336,114.389339 130.512,113.28 C129.914664,112.170661 129.616,110.805341 129.616,109.184 C129.616,107.477325 129.914664,106.069339 130.512,104.96 C131.109336,103.850661 131.898662,102.933337 132.88,102.208 C133.861338,101.482663 135.013327,100.906669 136.336,100.48 C137.658673,100.053331 139.00266,99.7120013 140.368,99.456 C141.818674,99.1999987 143.269326,98.9866675 144.72,98.816 C146.170674,98.6453325 147.557327,98.4320013 148.88,98.176 C150.202673,97.9199987 151.439994,97.6000019 152.592,97.216 C153.744006,96.8319981 154.703996,96.2986701 155.472,95.616 Z M221.136,116.096 C218.234652,116.096 215.76001,115.498673 213.712,114.304 C211.66399,113.109327 210.02134,111.55201 208.784,109.632 C207.54666,107.71199 206.650669,105.472013 206.096,102.912 C205.541331,100.351987 205.264,97.7493466 205.264,95.104 C205.264,92.3733197 205.519997,89.7280128 206.032,87.168 C206.544003,84.6079872 207.41866,82.3466765 208.656,80.384 C209.89334,78.4213235 211.514657,76.8213395 213.52,75.584 C215.525343,74.3466605 218.021318,73.728 221.008,73.728 C223.909348,73.728 226.362657,74.3466605 228.368,75.584 C230.373343,76.8213395 232.015994,78.4426566 233.296,80.448 C234.576006,82.4533434 235.493331,84.7359872 236.048,87.296 C236.602669,89.8560128 236.88,92.4586534 236.88,95.104 C236.88,97.7493466 236.624003,100.351987 236.112,102.912 C235.599997,105.472013 234.72534,107.71199 233.488,109.632 C232.25066,111.55201 230.629343,113.109327 228.624,114.304 C226.618657,115.498673 224.122682,116.096 221.136,116.096 Z M187.728,61.824 L187.728,151.168 L205.904,151.168 L205.904,119.808 L206.16,119.808 C208.378678,123.050683 211.215983,125.503992 214.672,127.168 C218.128017,128.832008 221.90398,129.664 226,129.664 C230.864024,129.664 235.109315,128.725343 238.736,126.848 C242.362685,124.970657 245.391988,122.453349 247.824,119.296 C250.256012,116.138651 252.069327,112.51202 253.264,108.416 C254.458673,104.31998 255.056,100.053356 255.056,95.616 C255.056,90.9226432 254.458673,86.4213549 253.264,82.112 C252.069327,77.8026451 250.234679,74.0266829 247.76,70.784 C245.285321,67.5413171 242.170685,64.9386765 238.416,62.976 C234.661315,61.0133235 230.181359,60.032 224.976,60.032 C220.87998,60.032 217.12535,60.8426586 213.712,62.464 C210.29865,64.0853414 207.482678,66.6879821 205.264,70.272 L205.008,70.272 L205.008,61.824 L187.728,61.824 Z M284.624,51.584 L284.624,36.608 L266.448,36.608 L266.448,51.584 L284.624,51.584 Z M266.448,61.824 L266.448,128 L284.624,128 L284.624,61.824 L266.448,61.824 Z M343.504,87.808 L313.936,87.808 C314.021334,86.5279936 314.298664,85.0773414 314.768,83.456 C315.237336,81.8346586 316.047994,80.2986739 317.2,78.848 C318.352006,77.3973261 319.88799,76.1813382 321.808,75.2 C323.72801,74.2186618 326.138652,73.728 329.04,73.728 C333.477356,73.728 336.783989,74.9226547 338.96,77.312 C341.136011,79.7013453 342.650662,83.199977 343.504,87.808 Z M313.936,99.328 L361.68,99.328 C362.021335,94.2079744 361.594673,89.3013568 360.4,84.608 C359.205327,79.9146432 357.264013,75.7333517 354.576,72.064 C351.887987,68.3946483 348.453354,65.4720109 344.272,63.296 C340.090646,61.1199891 335.184028,60.032 329.552,60.032 C324.517308,60.032 319.930687,60.927991 315.792,62.72 C311.653313,64.512009 308.090682,66.9653178 305.104,70.08 C302.117318,73.1946822 299.813341,76.885312 298.192,81.152 C296.570659,85.418688 295.76,90.0266419 295.76,94.976 C295.76,100.096026 296.549325,104.789312 298.128,109.056 C299.706675,113.322688 301.946652,116.991985 304.848,120.064 C307.749348,123.136015 311.290646,125.503992 315.472,127.168 C319.653354,128.832008 324.346641,129.664 329.552,129.664 C337.061371,129.664 343.461307,127.95735 348.752,124.544 C354.042693,121.13065 357.967987,115.45604 360.528,107.52 L344.528,107.52 C343.930664,109.56801 342.309347,111.509324 339.664,113.344 C337.018653,115.178676 333.861352,116.096 330.192,116.096 C325.071974,116.096 321.14668,114.773347 318.416,112.128 C315.68532,109.482653 314.192001,105.216029 313.936,99.328 Z M372.432,61.824 L372.432,128 L390.608,128 L390.608,98.176 C390.608,95.1893184 390.906664,92.4160128 391.504,89.856 C392.101336,87.2959872 393.103993,85.0560096 394.512,83.136 C395.920007,81.2159904 397.775988,79.7013389 400.08,78.592 C402.384012,77.4826611 405.199983,76.928 408.528,76.928 C409.637339,76.928 410.789327,76.9919994 411.984,77.12 C413.178673,77.2480006 414.202662,77.3973325 415.056,77.568 L415.056,60.672 C413.605326,60.2453312 412.282673,60.032 411.088,60.032 C408.783988,60.032 406.565344,60.3733299 404.432,61.056 C402.298656,61.7386701 400.293343,62.6986605 398.416,63.936 C396.538657,65.1733395 394.874674,66.6666579 393.424,68.416 C391.973326,70.1653421 390.821338,72.0639898 389.968,74.112 L389.712,74.112 L389.712,61.824 L372.432,61.824 Z M422.736,36.608 L422.736,128 L440.912,128 L440.912,36.608 L422.736,36.608 Z M471.376,94.976 C471.376,92.3306534 471.631997,89.7280128 472.144,87.168 C472.656003,84.6079872 473.53066,82.3466765 474.768,80.384 C476.00534,78.4213235 477.64799,76.8213395 479.696,75.584 C481.74401,74.3466605 484.303985,73.728 487.376,73.728 C490.448015,73.728 493.029323,74.3466605 495.12,75.584 C497.210677,76.8213395 498.87466,78.4213235 500.112,80.384 C501.34934,82.3466765 502.223997,84.6079872 502.736,87.168 C503.248003,89.7280128 503.504,92.3306534 503.504,94.976 C503.504,97.6213466 503.248003,100.202654 502.736,102.72 C502.223997,105.237346 501.34934,107.498657 500.112,109.504 C498.87466,111.509343 497.210677,113.109327 495.12,114.304 C493.029323,115.498673 490.448015,116.096 487.376,116.096 C484.303985,116.096 481.74401,115.498673 479.696,114.304 C477.64799,113.109327 476.00534,111.509343 474.768,109.504 C473.53066,107.498657 472.656003,105.237346 472.144,102.72 C471.631997,100.202654 471.376,97.6213466 471.376,94.976 Z M453.2,94.976 C453.2,100.266693 454.010659,105.045312 455.632,109.312 C457.253341,113.578688 459.557318,117.226652 462.544,120.256 C465.530682,123.285348 469.114646,125.610659 473.296,127.232 C477.477354,128.853341 482.170641,129.664 487.376,129.664 C492.581359,129.664 497.295979,128.853341 501.52,127.232 C505.744021,125.610659 509.349318,123.285348 512.336,120.256 C515.322682,117.226652 517.626659,113.578688 519.248,109.312 C520.869341,105.045312 521.68,100.266693 521.68,94.976 C521.68,89.6853069 520.869341,84.8853549 519.248,80.576 C517.626659,76.2666451 515.322682,72.5973485 512.336,69.568 C509.349318,66.5386515 505.744021,64.1920083 501.52,62.528 C497.295979,60.8639917 492.581359,60.032 487.376,60.032 C482.170641,60.032 477.477354,60.8639917 473.296,62.528 C469.114646,64.1920083 465.530682,66.5386515 462.544,69.568 C459.557318,72.5973485 457.253341,76.2666451 455.632,80.576 C454.010659,84.8853549 453.2,89.6853069 453.2,94.976 Z M547.536,106.496 L530.256,106.496 C530.426668,110.933356 531.429324,114.623985 533.264,117.568 C535.098676,120.512015 537.445319,122.879991 540.304,124.672 C543.162681,126.464009 546.426648,127.743996 550.096,128.512 C553.765352,129.280004 557.519981,129.664 561.36,129.664 C565.114685,129.664 568.805315,129.301337 572.432,128.576 C576.058685,127.850663 579.279986,126.592009 582.096,124.8 C584.912014,123.007991 587.194658,120.640015 588.944,117.696 C590.693342,114.751985 591.568,111.104022 591.568,106.752 C591.568,103.679985 590.970673,101.098677 589.776,99.008 C588.581327,96.9173229 587.002676,95.168007 585.04,93.76 C583.077324,92.351993 580.837346,91.2213376 578.32,90.368 C575.802654,89.5146624 573.221347,88.7893363 570.576,88.192 C568.015987,87.5946637 565.498679,87.0400026 563.024,86.528 C560.549321,86.0159974 558.35201,85.4400032 556.432,84.8 C554.51199,84.1599968 552.954673,83.3280051 551.76,82.304 C550.565327,81.2799949 549.968,79.9573414 549.968,78.336 C549.968,76.9706598 550.30933,75.8826707 550.992,75.072 C551.67467,74.2613293 552.506662,73.6426688 553.488,73.216 C554.469338,72.7893312 555.557327,72.5120006 556.752,72.384 C557.946673,72.2559994 559.055995,72.192 560.08,72.192 C563.322683,72.192 566.138655,72.8106605 568.528,74.048 C570.917345,75.2853395 572.239999,77.6533158 572.496,81.152 L589.776,81.152 C589.434665,77.0559795 588.389342,73.6640134 586.64,70.976 C584.890658,68.2879866 582.693347,66.1333414 580.048,64.512 C577.402653,62.8906586 574.394684,61.7386701 571.024,61.056 C567.653316,60.3733299 564.176018,60.032 560.592,60.032 C557.007982,60.032 553.50935,60.3519968 550.096,60.992 C546.68265,61.6320032 543.61068,62.7413254 540.88,64.32 C538.14932,65.8986746 535.952008,68.0533197 534.288,70.784 C532.623992,73.5146803 531.792,77.013312 531.792,81.28 C531.792,84.1813478 532.389327,86.6346566 533.584,88.64 C534.778673,90.6453434 536.357324,92.3093267 538.32,93.632 C540.282676,94.9546733 542.522654,96.0213293 545.04,96.832 C547.557346,97.6426707 550.138653,98.3466637 552.784,98.944 C559.269366,100.30934 564.325315,101.67466 567.952,103.04 C571.578685,104.40534 573.392,106.45332 573.392,109.184 C573.392,110.805341 573.008004,112.149328 572.24,113.216 C571.471996,114.282672 570.512006,115.135997 569.36,115.776 C568.207994,116.416003 566.928007,116.885332 565.52,117.184 C564.111993,117.482668 562.768006,117.632 561.488,117.632 C559.695991,117.632 557.968008,117.418669 556.304,116.992 C554.639992,116.565331 553.168006,115.904004 551.888,115.008 C550.607994,114.111996 549.562671,112.960007 548.752,111.552 C547.941329,110.143993 547.536,108.458676 547.536,106.496 Z M602.96,108.288 L602.96,128 L623.056,128 L623.056,108.288 L602.96,108.288 Z" id="Shape" fill="#15202A"></path>
            </g>
        </g>
    </g>
</svg>