<svg xmlns="http://www.w3.org/2000/svg" width="24" height="24" viewBox="0 0 24 24">
  <symbol id="menu" viewBox="0 0 24 24">
    <path fill="none" d="M0 0h24v24H0V0z"/><path d="M3 18h18v-2H3v2zm0-5h18v-2H3v2zm0-7v2h18V6H3z"/>
  </symbol>
  <symbol id="search" viewBox="0 0 24 24">
    <path fill="none" d="M0 0h24v24H0V0z"/>
    <path d="M15.5 14h-.79l-.28-.27C15.41 12.59 16 11.11 16 9.5 16 5.91 13.09 3 9.5 3S3 5.91 3 9.5 5.91 16 9.5 16c1.61 0 3.09-.59 4.23-1.57l.27.28v.79l5 4.99L20.49 19l-4.99-5zm-6 0C7.01 14 5 11.99 5 9.5S7.01 5 9.5 5 14 7.01 14 9.5 11.99 14 9.5 14z"/>
  </symbol>
  <symbol id="night" viewBox="0 0 24 24">
    <path fill="none" d="M0 0h24v24H0V0z"/><path d="M10 4c4.41 0 8 3.59 8 8s-3.59 8-8 8c-.34 0-.68-.02-1.01-.07C10.9 17.77 12 14.95 12 12s-1.1-5.77-3.01-7.93C9.32 4.02 9.66 4 10 4m0-2c-1.82 0-3.53.5-5 1.35C7.99 5.08 10 8.3 10 12s-2.01 6.92-5 8.65C6.47 21.5 8.18 22 10 22c5.52 0 10-4.48 10-10S15.52 2 10 2z"/>
  </symbol>
  <symbol id="day" viewBox="0 0 24 24">
    <path fill="none" d="M0 0h24v24H0V0z"/><path d="M6.76 4.84l-1.8-1.79-1.41 1.41 1.79 1.79zM1 10.5h3v2H1zM11 .55h2V3.5h-2zm8.04 2.495l1.408 1.407-1.79 1.79-1.407-1.408zm-1.8 15.115l1.79 1.8 1.41-1.41-1.8-1.79zM20 10.5h3v2h-3zm-8-5c-3.31 0-6 2.69-6 6s2.69 6 6 6 6-2.69 6-6-2.69-6-6-6zm0 10c-2.21 0-4-1.79-4-4s1.79-4 4-4 4 1.79 4 4-1.79 4-4 4zm-1 4h2v2.95h-2zm-7.45-.96l1.41 1.41 1.79-1.8-1.41-1.41z"/>    
  </symbol>
</svg>