<svg xmlns="http://www.w3.org/2000/svg" width="24" height="24" viewBox="0 0 24 24">
  <symbol id="search" viewBox="0 0 24 24">
    <path d="M16.041 15.856c-0.034 0.026-0.067 0.055-0.099 0.087s-0.060 0.064-0.087 0.099c-1.258 1.213-2.969 1.958-4.855 1.958-1.933 0-3.682-0.782-4.95-2.050s-2.050-3.017-2.050-4.95 0.782-3.682 2.050-4.95 3.017-2.050 4.95-2.050 3.682 0.782 4.95 2.050 2.050 3.017 2.050 4.95c0 1.886-0.745 3.597-1.959 4.856zM21.707 20.293l-3.675-3.675c1.231-1.54 1.968-3.493 1.968-5.618 0-2.485-1.008-4.736-2.636-6.364s-3.879-2.636-6.364-2.636-4.736 1.008-6.364 2.636-2.636 3.879-2.636 6.364 1.008 4.736 2.636 6.364 3.879 2.636 6.364 2.636c2.125 0 4.078-0.737 5.618-1.968l3.675 3.675c0.391 0.391 1.024 0.391 1.414 0s0.391-1.024 0-1.414z"></path>
  </symbol>
  <symbol id="menu" viewBox="0 0 24 24">
    <path d="M3 13h18c0.552 0 1-0.448 1-1s-0.448-1-1-1h-18c-0.552 0-1 0.448-1 1s0.448 1 1 1zM3 7h18c0.552 0 1-0.448 1-1s-0.448-1-1-1h-18c-0.552 0-1 0.448-1 1s0.448 1 1 1zM3 19h18c0.552 0 1-0.448 1-1s-0.448-1-1-1h-18c-0.552 0-1 0.448-1 1s0.448 1 1 1z"></path>
  </symbol>
  <symbol id="day" viewBox="0 0 24 24">
    <path d="M18 12c0-1.657-0.673-3.158-1.757-4.243s-2.586-1.757-4.243-1.757-3.158 0.673-4.243 1.757-1.757 2.586-1.757 4.243 0.673 3.158 1.757 4.243 2.586 1.757 4.243 1.757 3.158-0.673 4.243-1.757 1.757-2.586 1.757-4.243zM16 12c0 1.105-0.447 2.103-1.172 2.828s-1.723 1.172-2.828 1.172-2.103-0.447-2.828-1.172-1.172-1.723-1.172-2.828 0.447-2.103 1.172-2.828 1.723-1.172 2.828-1.172 2.103 0.447 2.828 1.172 1.172 1.723 1.172 2.828zM11 1v2c0 0.552 0.448 1 1 1s1-0.448 1-1v-2c0-0.552-0.448-1-1-1s-1 0.448-1 1zM11 21v2c0 0.552 0.448 1 1 1s1-0.448 1-1v-2c0-0.552-0.448-1-1-1s-1 0.448-1 1zM3.513 4.927l1.42 1.42c0.391 0.391 1.024 0.391 1.414 0s0.391-1.024 0-1.414l-1.42-1.42c-0.391-0.391-1.024-0.391-1.414 0s-0.391 1.024 0 1.414zM17.653 19.067l1.42 1.42c0.391 0.391 1.024 0.391 1.414 0s0.391-1.024 0-1.414l-1.42-1.42c-0.391-0.391-1.024-0.391-1.414 0s-0.391 1.024 0 1.414zM1 13h2c0.552 0 1-0.448 1-1s-0.448-1-1-1h-2c-0.552 0-1 0.448-1 1s0.448 1 1 1zM21 13h2c0.552 0 1-0.448 1-1s-0.448-1-1-1h-2c-0.552 0-1 0.448-1 1s0.448 1 1 1zM4.927 20.487l1.42-1.42c0.391-0.391 0.391-1.024 0-1.414s-1.024-0.391-1.414 0l-1.42 1.42c-0.391 0.391-0.391 1.024 0 1.414s1.024 0.391 1.414 0zM19.067 6.347l1.42-1.42c0.391-0.391 0.391-1.024 0-1.414s-1.024-0.391-1.414 0l-1.42 1.42c-0.391 0.391-0.391 1.024 0 1.414s1.024 0.391 1.414 0z"></path>
  </symbol>
  <symbol id="night" viewBox="0 0 24 24">
    <path d="M21.996 12.882c0.022-0.233-0.038-0.476-0.188-0.681-0.325-0.446-0.951-0.544-1.397-0.219-0.95 0.693-2.059 1.086-3.188 1.162-1.368 0.092-2.766-0.283-3.95-1.158-1.333-0.985-2.139-2.415-2.367-3.935s0.124-3.124 1.109-4.456c0.142-0.191 0.216-0.435 0.191-0.691-0.053-0.55-0.542-0.952-1.092-0.898-2.258 0.22-4.314 1.18-5.895 2.651-1.736 1.615-2.902 3.847-3.137 6.386-0.254 2.749 0.631 5.343 2.266 7.311s4.022 3.313 6.772 3.567 5.343-0.631 7.311-2.266 3.313-4.022 3.567-6.772zM19.567 14.674c-0.49 1.363-1.335 2.543-2.416 3.441-1.576 1.309-3.648 2.016-5.848 1.813s-4.108-1.278-5.417-2.854-2.016-3.648-1.813-5.848c0.187-2.032 1.117-3.814 2.507-5.106 0.782-0.728 1.71-1.3 2.731-1.672-0.456 1.264-0.577 2.606-0.384 3.899 0.303 2.023 1.38 3.934 3.156 5.247 1.579 1.167 3.448 1.668 5.273 1.545 0.752-0.050 1.496-0.207 2.21-0.465z"></path>
  </symbol>
  <symbol id="hardware" viewBox="0 0 24 24">
    <path d="M17 8h-10v-5h10zM5 19v3c0 0.552 0.448 1 1 1h12c0.552 0 1-0.448 1-1v-3h1c0.828 0 1.58-0.337 2.121-0.879s0.879-1.293 0.879-2.121v-5c0-0.828-0.337-1.58-0.879-2.121s-1.293-0.879-2.121-0.879h-1v-6c0-0.552-0.448-1-1-1h-12c-0.552 0-1 0.448-1 1v6h-1c-0.828 0-1.58 0.337-2.121 0.879s-0.879 1.293-0.879 2.121v5c0 0.828 0.337 1.58 0.879 2.121s1.293 0.879 2.121 0.879zM6 13c-0.552 0-1 0.448-1 1v3h-1c-0.276 0-0.525-0.111-0.707-0.293s-0.293-0.431-0.293-0.707v-5c0-0.276 0.111-0.525 0.293-0.707s0.431-0.293 0.707-0.293h16c0.276 0 0.525 0.111 0.707 0.293s0.293 0.431 0.293 0.707v5c0 0.276-0.111 0.525-0.293 0.707s-0.431 0.293-0.707 0.293h-1v-3c0-0.552-0.448-1-1-1zM7 15h10v6h-10z"></path>
  </symbol>
  <symbol id="knowledge" viewBox="0 0 24 24">
    <path d="M6.5 1c-0.966 0-1.843 0.393-2.475 1.025s-1.025 1.509-1.025 2.475v15c0 0.966 0.393 1.843 1.025 2.475s1.509 1.025 2.475 1.025h13.5c0.552 0 1-0.448 1-1v-20c0-0.552-0.448-1-1-1zM19 18v3h-12.5c-0.414 0-0.788-0.167-1.061-0.439s-0.439-0.647-0.439-1.061 0.167-0.788 0.439-1.061 0.647-0.439 1.061-0.439zM6.5 3h12.5v13h-12.5c-0.537 0-1.045 0.121-1.5 0.337v-11.837c0-0.414 0.167-0.788 0.439-1.061s0.647-0.439 1.061-0.439z"></path>
  </symbol>
  <symbol id="services" viewBox="0 0 24 24">
    <title>server</title>
    <path d="M4 1c-0.828 0-1.58 0.337-2.121 0.879s-0.879 1.293-0.879 2.121v4c0 0.828 0.337 1.58 0.879 2.121s1.293 0.879 2.121 0.879h16c0.828 0 1.58-0.337 2.121-0.879s0.879-1.293 0.879-2.121v-4c0-0.828-0.337-1.58-0.879-2.121s-1.293-0.879-2.121-0.879zM4 3h16c0.276 0 0.525 0.111 0.707 0.293s0.293 0.431 0.293 0.707v4c0 0.276-0.111 0.525-0.293 0.707s-0.431 0.293-0.707 0.293h-16c-0.276 0-0.525-0.111-0.707-0.293s-0.293-0.431-0.293-0.707v-4c0-0.276 0.111-0.525 0.293-0.707s0.431-0.293 0.707-0.293zM4 13c-0.828 0-1.58 0.337-2.121 0.879s-0.879 1.293-0.879 2.121v4c0 0.828 0.337 1.58 0.879 2.121s1.293 0.879 2.121 0.879h16c0.828 0 1.58-0.337 2.121-0.879s0.879-1.293 0.879-2.121v-4c0-0.828-0.337-1.58-0.879-2.121s-1.293-0.879-2.121-0.879zM4 15h16c0.276 0 0.525 0.111 0.707 0.293s0.293 0.431 0.293 0.707v4c0 0.276-0.111 0.525-0.293 0.707s-0.431 0.293-0.707 0.293h-16c-0.276 0-0.525-0.111-0.707-0.293s-0.293-0.431-0.293-0.707v-4c0-0.276 0.111-0.525 0.293-0.707s0.431-0.293 0.707-0.293zM7 6c0-0.552-0.448-1-1-1s-1 0.448-1 1 0.448 1 1 1 1-0.448 1-1zM7 18c0-0.552-0.448-1-1-1s-1 0.448-1 1 0.448 1 1 1 1-0.448 1-1z"></path>
  </symbol>
  <symbol id="software" viewBox="0 0 24 24">
    <title>disc</title>
    <path d="M23 12c0-3.037-1.232-5.789-3.222-7.778s-4.741-3.222-7.778-3.222-5.789 1.232-7.778 3.222-3.222 4.741-3.222 7.778 1.232 5.789 3.222 7.778 4.741 3.222 7.778 3.222 5.789-1.232 7.778-3.222 3.222-4.741 3.222-7.778zM21 12c0 2.486-1.006 4.734-2.636 6.364s-3.878 2.636-6.364 2.636-4.734-1.006-6.364-2.636-2.636-3.878-2.636-6.364 1.006-4.734 2.636-6.364 3.878-2.636 6.364-2.636 4.734 1.006 6.364 2.636 2.636 3.878 2.636 6.364zM16 12c0-1.104-0.449-2.106-1.172-2.828s-1.724-1.172-2.828-1.172-2.106 0.449-2.828 1.172-1.172 1.724-1.172 2.828 0.449 2.106 1.172 2.828 1.724 1.172 2.828 1.172 2.106-0.449 2.828-1.172 1.172-1.724 1.172-2.828zM14 12c0 0.553-0.223 1.051-0.586 1.414s-0.861 0.586-1.414 0.586-1.051-0.223-1.414-0.586-0.586-0.861-0.586-1.414 0.223-1.051 0.586-1.414 0.861-0.586 1.414-0.586 1.051 0.223 1.414 0.586 0.586 0.861 0.586 1.414z"></path>
  </symbol>
</svg>